Amstelvar-Roman_opsz144_wght100_wdth50.ufo
<glyph name="grave" format="2">
	<unicode hex="0060"/>
	<advance width="896"/>
	<outline>
		<contour>
			<point x="285" y="1281" type="qcurve" smooth="yes"/>
			<point x="285" y="1291"/>
			<point x="296" y="1304"/>
			<point x="311" y="1304" type="qcurve" smooth="yes"/>
			<point x="327" y="1304"/>
			<point x="361" y="1278"/>
			<point x="377" y="1262" type="qcurve" smooth="yes"/>
			<point x="561" y="1088" type="line"/>
			<point x="555" y="1080" type="line"/>
			<point x="328" y="1224" type="line" smooth="yes"/>
			<point x="310" y="1236"/>
			<point x="285" y="1267"/>
		</contour>
	</outline>
</glyph>
<glyph name="dieresis" format="2">
	<unicode hex="00A8"/>
	<advance width="896"/>
	<outline>
		<contour>
			<point x="514" y="1217" type="qcurve" smooth="yes"/>
			<point x="514" y="1235"/>
			<point x="544" y="1264"/>
			<point x="560" y="1264" type="qcurve" smooth="yes"/>
			<point x="579" y="1264"/>
			<point x="609" y="1239"/>
			<point x="609" y="1217" type="qcurve" smooth="yes"/>
			<point x="609" y="1198"/>
			<point x="576" y="1168"/>
			<point x="560" y="1168" type="qcurve" smooth="yes"/>
			<point x="543" y="1168"/>
			<point x="514" y="1196"/>
		</contour>
		<contour>
			<point x="287" y="1217" type="qcurve" smooth="yes"/>
			<point x="287" y="1235"/>
			<point x="319" y="1264"/>
			<point x="336" y="1264" type="qcurve" smooth="yes"/>
			<point x="353" y="1264"/>
			<point x="382" y="1239"/>
			<point x="382" y="1217" type="qcurve" smooth="yes"/>
			<point x="382" y="1198"/>
			<point x="352" y="1168"/>
			<point x="336" y="1168" type="qcurve" smooth="yes"/>
			<point x="317" y="1168"/>
			<point x="287" y="1196"/>
		</contour>
	</outline>
</glyph>
<glyph name="acute" format="2">
	<unicode hex="00B4"/>
	<advance width="896"/>
	<outline>
		<contour>
			<point x="611" y="1281" type="qcurve" smooth="yes"/>
			<point x="611" y="1267"/>
			<point x="586" y="1236"/>
			<point x="568" y="1224" type="qcurve" smooth="yes"/>
			<point x="341" y="1080" type="line"/>
			<point x="335" y="1088" type="line"/>
			<point x="519" y="1262" type="line" smooth="yes"/>
			<point x="535" y="1278"/>
			<point x="569" y="1304"/>
			<point x="585" y="1304" type="qcurve" smooth="yes"/>
			<point x="600" y="1304"/>
			<point x="611" y="1291"/>
		</contour>
	</outline>
</glyph>
<glyph name="circumflex" format="2">
	<unicode hex="02C6"/>
	<advance width="896"/>
	<outline>
		<contour>
			<point x="451" y="1269" type="qcurve" smooth="yes"/>
			<point x="466" y="1269"/>
			<point x="524" y="1218"/>
			<point x="563" y="1178" type="qcurve" smooth="yes"/>
			<point x="649" y="1089" type="line"/>
			<point x="638" y="1080" type="line"/>
			<point x="451" y="1208" type="line"/>
			<point x="256" y="1080" type="line"/>
			<point x="247" y="1088" type="line"/>
			<point x="338" y="1178" type="line" smooth="yes"/>
			<point x="386" y="1226"/>
			<point x="436" y="1269"/>
		</contour>
	</outline>
</glyph>
<glyph name="caron" format="2">
	<unicode hex="02C7"/>
	<advance width="896"/>
	<outline>
		<contour>
			<point x="445" y="1080" type="qcurve" smooth="yes"/>
			<point x="423" y="1080"/>
			<point x="374" y="1126"/>
			<point x="332" y="1163" type="qcurve" smooth="yes"/>
			<point x="270" y="1229" type="line"/>
			<point x="281" y="1238" type="line"/>
			<point x="445" y="1131" type="line"/>
			<point x="617" y="1234" type="line"/>
			<point x="626" y="1226" type="line"/>
			<point x="558" y="1163" type="line" smooth="yes"/>
			<point x="508" y="1117"/>
			<point x="467" y="1080"/>
		</contour>
	</outline>
</glyph>
<glyph name="dotaccent" format="2">
	<unicode hex="02D9"/>
	<advance width="896"/>
	<outline>
		<contour>
			<point x="395" y="1169" type="qcurve" smooth="yes"/>
			<point x="395" y="1191"/>
			<point x="428" y="1223"/>
			<point x="447" y="1223" type="qcurve" smooth="yes"/>
			<point x="467" y="1223"/>
			<point x="501" y="1189"/>
			<point x="501" y="1169" type="qcurve" smooth="yes"/>
			<point x="501" y="1148"/>
			<point x="468" y="1115"/>
			<point x="447" y="1115" type="qcurve" smooth="yes"/>
			<point x="428" y="1115"/>
			<point x="395" y="1148"/>
		</contour>
	</outline>
</glyph>
<glyph name="ogonek" format="2">
	<unicode hex="02DB"/>
	<advance width="896"/>
	<outline>
		<contour>
			<point x="363" y="-154" type="qcurve" smooth="yes"/>
			<point x="363" y="-193"/>
			<point x="407" y="-244"/>
			<point x="452" y="-244" type="qcurve" smooth="yes"/>
			<point x="488" y="-244"/>
			<point x="568" y="-202"/>
			<point x="605" y="-153" type="qcurve"/>
			<point x="610" y="-157" type="line"/>
			<point x="575" y="-212"/>
			<point x="484" y="-268"/>
			<point x="436" y="-268" type="qcurve" smooth="yes"/>
			<point x="380" y="-268"/>
			<point x="306" y="-216"/>
			<point x="306" y="-167" type="qcurve" smooth="yes"/>
			<point x="306" y="-114"/>
			<point x="411" y="-18"/>
			<point x="461" y="2" type="qcurve" smooth="yes"/>
			<point x="470" y="6" type="line"/>
			<point x="477" y="0" type="line"/>
			<point x="469" y="-4" type="line" smooth="yes"/>
			<point x="422" y="-25"/>
			<point x="363" y="-110"/>
		</contour>
	</outline>
</glyph>
<glyph name="tilde" format="2">
	<unicode hex="02DC"/>
	<advance width="896"/>
	<outline>
		<contour>
			<point x="222" y="1129" type="line"/>
			<point x="239" y="1154"/>
			<point x="313" y="1216"/>
			<point x="355" y="1216" type="qcurve" smooth="yes"/>
			<point x="391" y="1216"/>
			<point x="439" y="1189"/>
			<point x="465" y="1172" type="qcurve" smooth="yes"/>
			<point x="488" y="1157"/>
			<point x="542" y="1125"/>
			<point x="566" y="1125" type="qcurve" smooth="yes"/>
			<point x="592" y="1125"/>
			<point x="640" y="1158"/>
			<point x="653" y="1177" type="qcurve"/>
			<point x="663" y="1170" type="line"/>
			<point x="646" y="1135"/>
			<point x="590" y="1080"/>
			<point x="547" y="1080" type="qcurve" smooth="yes"/>
			<point x="509" y="1080"/>
			<point x="448" y="1111"/>
			<point x="427" y="1124" type="qcurve" smooth="yes"/>
			<point x="404" y="1138"/>
			<point x="347" y="1176"/>
			<point x="319" y="1176" type="qcurve" smooth="yes"/>
			<point x="291" y="1176"/>
			<point x="246" y="1139"/>
			<point x="234" y="1123" type="qcurve"/>
		</contour>
	</outline>
</glyph>
<glyph name="hungarumlaut" format="2">
	<unicode hex="02DD"/>
	<advance width="896"/>
	<outline>
		<contour>
			<point x="492" y="1222" type="qcurve" smooth="yes"/>
			<point x="492" y="1215"/>
			<point x="469" y="1192"/>
			<point x="458" y="1186" type="qcurve" smooth="yes"/>
			<point x="279" y="1080" type="line"/>
			<point x="270" y="1091" type="line"/>
			<point x="416" y="1229" type="line" smooth="yes"/>
			<point x="427" y="1240"/>
			<point x="446" y="1254"/>
			<point x="460" y="1254" type="qcurve" smooth="yes"/>
			<point x="476" y="1254"/>
			<point x="492" y="1235"/>
		</contour>
		<contour>
			<point x="694" y="1220" type="qcurve" smooth="yes"/>
			<point x="694" y="1213"/>
			<point x="669" y="1186"/>
			<point x="659" y="1181" type="qcurve" smooth="yes"/>
			<point x="477" y="1080" type="line"/>
			<point x="468" y="1091" type="line"/>
			<point x="615" y="1232" type="line" smooth="yes"/>
			<point x="626" y="1243"/>
			<point x="649" y="1257"/>
			<point x="660" y="1257" type="qcurve" smooth="yes"/>
			<point x="675" y="1257"/>
			<point x="694" y="1235"/>
		</contour>
	</outline>
</glyph>
<glyph name="hookabovecomb" format="2">
	<unicode hex="0309"/>
	<advance width="896"/>
	<outline>
		<contour>
			<point x="403" y="1080" type="line"/>
			<point x="401" y="1138" type="line"/>
			<point x="417" y="1150" type="line"/>
			<point x="429" y="1144"/>
			<point x="482" y="1132"/>
			<point x="509" y="1132" type="qcurve" smooth="yes"/>
			<point x="555" y="1132"/>
			<point x="600" y="1194"/>
			<point x="600" y="1248" type="qcurve" smooth="yes"/>
			<point x="600" y="1301"/>
			<point x="546" y="1357"/>
			<point x="492" y="1357" type="qcurve" smooth="yes"/>
			<point x="446" y="1357"/>
			<point x="378" y="1324"/>
			<point x="361" y="1305" type="qcurve"/>
			<point x="356" y="1314" type="line"/>
			<point x="373" y="1334"/>
			<point x="456" y="1373"/>
			<point x="510" y="1373" type="qcurve" smooth="yes"/>
			<point x="572" y="1373"/>
			<point x="660" y="1316"/>
			<point x="660" y="1253" type="qcurve" smooth="yes"/>
			<point x="660" y="1195"/>
			<point x="583" y="1115"/>
			<point x="513" y="1115" type="qcurve"/>
			<point x="492" y="1115"/>
			<point x="442" y="1122"/>
			<point x="425" y="1126" type="qcurve"/>
			<point x="425" y="1080" type="line"/>
		</contour>
	</outline>
	<anchor name="_top" x="448" y="920"/>
	<anchor name="top" x="448" y="1373"/>
</glyph>
<glyph name="breveinvertedcomb" format="2">
	<unicode hex="030F"/>
	<advance width="896"/>
	<outline>
		<contour>
			<point x="295" y="1063" type="qcurve"/>
			<point x="287" y="1066" type="line"/>
			<point x="300" y="1118"/>
			<point x="382" y="1205"/>
			<point x="447" y="1205" type="qcurve" smooth="yes"/>
			<point x="512" y="1205"/>
			<point x="594" y="1114"/>
			<point x="608" y="1063" type="qcurve"/>
			<point x="600" y="1059" type="line"/>
			<point x="587" y="1094"/>
			<point x="504" y="1151"/>
			<point x="447" y="1151" type="qcurve" smooth="yes"/>
			<point x="392" y="1151"/>
			<point x="306" y="1091"/>
		</contour>
	</outline>
	<anchor name="_top" x="448" y="920"/>
	<anchor name="top" x="448" y="1205"/>
</glyph>
<glyph name="dblgravecomb" format="2">
	<unicode hex="0311"/>
	<advance width="896"/>
	<outline>
		<contour>
			<point x="173" y="1239" type="qcurve" smooth="yes"/>
			<point x="173" y="1257"/>
			<point x="191" y="1279"/>
			<point x="209" y="1279" type="qcurve" smooth="yes"/>
			<point x="225" y="1279"/>
			<point x="252" y="1251"/>
			<point x="268" y="1233" type="qcurve" smooth="yes"/>
			<point x="396" y="1087" type="line"/>
			<point x="390" y="1079" type="line"/>
			<point x="228" y="1189" type="line" smooth="yes"/>
			<point x="211" y="1200"/>
			<point x="173" y="1223"/>
		</contour>
		<contour>
			<point x="364" y="1251" type="qcurve" smooth="yes"/>
			<point x="364" y="1266"/>
			<point x="381" y="1285"/>
			<point x="400" y="1285" type="qcurve" smooth="yes"/>
			<point x="416" y="1285"/>
			<point x="441" y="1257"/>
			<point x="458" y="1237" type="qcurve" smooth="yes"/>
			<point x="586" y="1087" type="line"/>
			<point x="580" y="1079" type="line"/>
			<point x="422" y="1192" type="line" smooth="yes"/>
			<point x="404" y="1205"/>
			<point x="364" y="1231"/>
		</contour>
	</outline>
	<anchor name="_top" x="448" y="920"/>
	<anchor name="top" x="448" y="1286"/>
</glyph>
<glyph name="horncomb" format="2">
	<unicode hex="031B"/>
	<advance width="896"/>
	<outline>
		<contour>
			<point x="0" y="920" type="line"/>
			<point x="33" y="910"/>
			<point x="102" y="900"/>
			<point x="136" y="900" type="qcurve" smooth="yes"/>
			<point x="178" y="900"/>
			<point x="230" y="949"/>
			<point x="231" y="995" type="qcurve" smooth="yes"/>
			<point x="232" y="1027"/>
			<point x="213" y="1076"/>
			<point x="200" y="1098" type="qcurve"/>
			<point x="210" y="1102" type="line"/>
			<point x="235" y="1079"/>
			<point x="280" y="1007"/>
			<point x="280" y="972" type="qcurve" smooth="yes"/>
			<point x="280" y="933"/>
			<point x="217" y="872"/>
			<point x="155" y="872" type="qcurve" smooth="yes"/>
			<point x="99" y="872"/>
			<point x="21" y="897"/>
			<point x="0" y="910" type="qcurve"/>
		</contour>
	</outline>
	<anchor name="_topright" x="0" y="920"/>
	<anchor name="topright" x="0" y="1102"/>
</glyph>
<glyph name="dotbelowcomb" format="2">
	<unicode hex="0323"/>
	<advance width="896"/>
	<outline>
		<contour>
			<point x="391" y="-237" type="qcurve" smooth="yes"/>
			<point x="391" y="-212"/>
			<point x="423" y="-180"/>
			<point x="448" y="-180" type="qcurve" smooth="yes"/>
			<point x="473" y="-180"/>
			<point x="505" y="-212"/>
			<point x="505" y="-237" type="qcurve" smooth="yes"/>
			<point x="505" y="-263"/>
			<point x="473" y="-296"/>
			<point x="448" y="-296" type="qcurve" smooth="yes"/>
			<point x="423" y="-296"/>
			<point x="391" y="-263"/>
		</contour>
	</outline>
	<anchor name="_bottom" x="448" y="0"/>
	<anchor name="bottom" x="448" y="-296"/>
</glyph>
<glyph name="commaaccentcomb" format="2">
	<unicode hex="0326"/>
	<advance width="896"/>
	<outline>
		<contour>
			<point x="371" y="-439" type="line"/>
			<point x="402" y="-418"/>
			<point x="466" y="-328"/>
			<point x="467" y="-277" type="qcurve"/>
			<point x="434" y="-286"/>
			<point x="381" y="-261"/>
			<point x="381" y="-233" type="qcurve" smooth="yes"/>
			<point x="381" y="-204"/>
			<point x="412" y="-181"/>
			<point x="435" y="-181" type="qcurve" smooth="yes"/>
			<point x="462" y="-181"/>
			<point x="498" y="-223"/>
			<point x="498" y="-266" type="qcurve" smooth="yes"/>
			<point x="498" y="-320"/>
			<point x="414" y="-425"/>
			<point x="376" y="-446" type="qcurve"/>
		</contour>
	</outline>
	<anchor name="_bottom" x="448" y="0"/>
	<anchor name="bottom" x="448" y="-446"/>
</glyph>
<glyph name="horizontalbar" format="2">
	<unicode hex="2015"/>
	<advance width="686"/>
	<outline>
		<contour>
			<point x="264" y="703" type="line"/>
			<point x="62" y="703" type="line"/>
			<point x="66" y="739" type="line"/>
			<point x="249" y="739" type="line"/>
			<point x="453" y="739" type="line"/>
			<point x="451" y="703" type="line"/>
		</contour>
	</outline>
</glyph>
<glyph name="acutecomb.case" format="2">
	<advance width="896"/>
	<outline>
		<contour>
			<point x="582" y="1802" type="qcurve" smooth="yes"/>
			<point x="582" y="1781"/>
			<point x="566" y="1759"/>
			<point x="547" y="1750" type="qcurve" smooth="yes"/>
			<point x="334" y="1650" type="line"/>
			<point x="328" y="1658" type="line"/>
			<point x="475" y="1792" type="line" smooth="yes"/>
			<point x="496" y="1811"/>
			<point x="525" y="1836"/>
			<point x="541" y="1836" type="qcurve" smooth="yes"/>
			<point x="556" y="1836"/>
			<point x="582" y="1817"/>
		</contour>
	</outline>
	<anchor name="_top" x="448" y="1500"/>
	<anchor name="top" x="448" y="1836"/>
</glyph>
<glyph name="brevecomb.case" format="2">
	<advance width="896"/>
	<outline>
		<contour>
			<point x="671" y="1841" type="qcurve"/>
			<point x="682" y="1838" type="line"/>
			<point x="656" y="1775"/>
			<point x="538" y="1650"/>
			<point x="449" y="1650" type="qcurve" smooth="yes"/>
			<point x="360" y="1650"/>
			<point x="243" y="1768"/>
			<point x="214" y="1836" type="qcurve"/>
			<point x="225" y="1841" type="line"/>
			<point x="257" y="1769"/>
			<point x="371" y="1705"/>
			<point x="449" y="1708" type="qcurve" smooth="yes"/>
			<point x="528" y="1705"/>
			<point x="643" y="1772"/>
		</contour>
	</outline>
	<anchor name="_top" x="448" y="1500"/>
	<anchor name="top" x="448" y="1841"/>
</glyph>
<glyph name="breveinvertedcomb.case" format="2">
	<advance width="896"/>
	<outline>
		<contour>
			<point x="238" y="1650" type="qcurve"/>
			<point x="227" y="1653" type="line"/>
			<point x="246" y="1709"/>
			<point x="358" y="1802"/>
			<point x="447" y="1802" type="qcurve" smooth="yes"/>
			<point x="536" y="1802"/>
			<point x="649" y="1704"/>
			<point x="668" y="1650" type="qcurve"/>
			<point x="657" y="1645" type="line"/>
			<point x="639" y="1683"/>
			<point x="525" y="1744"/>
			<point x="447" y="1744" type="qcurve" smooth="yes"/>
			<point x="372" y="1744"/>
			<point x="253" y="1680"/>
		</contour>
	</outline>
	<anchor name="_top" x="448" y="1500"/>
	<anchor name="top" x="448" y="1802"/>
</glyph>
<glyph name="caroncomb.case" format="2">
	<advance width="896"/>
	<outline>
		<contour>
			<point x="445" y="1650" type="qcurve" smooth="yes"/>
			<point x="423" y="1650"/>
			<point x="374" y="1696"/>
			<point x="332" y="1733" type="qcurve" smooth="yes"/>
			<point x="247" y="1822" type="line"/>
			<point x="258" y="1831" type="line"/>
			<point x="445" y="1713" type="line"/>
			<point x="640" y="1831" type="line"/>
			<point x="649" y="1823" type="line"/>
			<point x="558" y="1733" type="line" smooth="yes"/>
			<point x="510" y="1685"/>
			<point x="467" y="1650"/>
		</contour>
	</outline>
	<anchor name="_top" x="448" y="1500"/>
	<anchor name="top" x="448" y="1831"/>
</glyph>
<glyph name="cedillacomb.case" format="2">
	<advance width="896"/>
	<outline>
		<contour>
			<point x="462" y="0" type="line"/>
			<point x="411" y="-99" type="line"/>
			<point x="429" y="-87"/>
			<point x="486" y="-64"/>
			<point x="527" y="-64" type="qcurve" smooth="yes"/>
			<point x="584" y="-64"/>
			<point x="673" y="-118"/>
			<point x="673" y="-172" type="qcurve" smooth="yes"/>
			<point x="673" y="-223"/>
			<point x="588" y="-284"/>
			<point x="519" y="-284" type="qcurve" smooth="yes"/>
			<point x="462" y="-284"/>
			<point x="358" y="-237"/>
			<point x="332" y="-211" type="qcurve"/>
			<point x="340" y="-201" type="line"/>
			<point x="360" y="-223"/>
			<point x="455" y="-268"/>
			<point x="504" y="-268" type="qcurve" smooth="yes"/>
			<point x="552" y="-268"/>
			<point x="605" y="-219"/>
			<point x="605" y="-178" type="qcurve" smooth="yes"/>
			<point x="605" y="-141"/>
			<point x="550" y="-91"/>
			<point x="503" y="-91" type="qcurve" smooth="yes"/>
			<point x="466" y="-91"/>
			<point x="417" y="-106"/>
			<point x="403" y="-118" type="qcurve"/>
			<point x="396" y="-114" type="line"/>
			<point x="453" y="2" type="line"/>
		</contour>
	</outline>
	<anchor name="_bottom" x="448" y="0"/>
	<anchor name="bottom" x="448" y="-284"/>
</glyph>
<glyph name="circumflexcomb.case" format="2">
	<advance width="896"/>
	<outline>
		<contour>
			<point x="447" y="1831" type="qcurve" smooth="yes"/>
			<point x="469" y="1831"/>
			<point x="521" y="1788"/>
			<point x="560" y="1748" type="qcurve" smooth="yes"/>
			<point x="645" y="1659" type="line"/>
			<point x="634" y="1650" type="line"/>
			<point x="447" y="1768" type="line"/>
			<point x="252" y="1650" type="line"/>
			<point x="243" y="1658" type="line"/>
			<point x="334" y="1748" type="line" smooth="yes"/>
			<point x="382" y="1796"/>
			<point x="425" y="1831"/>
		</contour>
	</outline>
	<anchor name="_top" x="448" y="1500"/>
	<anchor name="top" x="448" y="1831"/>
</glyph>
<glyph name="commaaccentcomb.case" format="2">
	<advance width="896"/>
	<outline>
		<contour>
			<point x="361" y="-448" type="line"/>
			<point x="388" y="-426"/>
			<point x="456" y="-327"/>
			<point x="457" y="-276" type="qcurve"/>
			<point x="406" y="-285"/>
			<point x="360" y="-263"/>
			<point x="360" y="-235" type="qcurve" smooth="yes"/>
			<point x="360" y="-206"/>
			<point x="392" y="-180"/>
			<point x="415" y="-180" type="qcurve" smooth="yes"/>
			<point x="442" y="-180"/>
			<point x="488" y="-222"/>
			<point x="488" y="-265" type="qcurve" smooth="yes"/>
			<point x="488" y="-319"/>
			<point x="403" y="-432"/>
			<point x="366" y="-455" type="qcurve"/>
		</contour>
	</outline>
	<anchor name="_bottom" x="448" y="0"/>
	<anchor name="bottom" x="448" y="-455"/>
</glyph>
<glyph name="dblgravecomb.case" format="2">
	<advance width="896"/>
	<outline>
		<contour>
			<point x="162" y="1814" type="qcurve" smooth="yes"/>
			<point x="162" y="1829"/>
			<point x="182" y="1854"/>
			<point x="201" y="1854" type="qcurve" smooth="yes"/>
			<point x="220" y="1854"/>
			<point x="247" y="1833"/>
			<point x="265" y="1815" type="qcurve" smooth="yes"/>
			<point x="423" y="1658" type="line"/>
			<point x="417" y="1650" type="line"/>
			<point x="225" y="1754" type="line" smooth="yes"/>
			<point x="206" y="1764"/>
			<point x="162" y="1794"/>
		</contour>
		<contour>
			<point x="352" y="1814" type="qcurve" smooth="yes"/>
			<point x="352" y="1829"/>
			<point x="372" y="1854"/>
			<point x="391" y="1854" type="qcurve" smooth="yes"/>
			<point x="410" y="1854"/>
			<point x="437" y="1833"/>
			<point x="455" y="1815" type="qcurve" smooth="yes"/>
			<point x="613" y="1658" type="line"/>
			<point x="607" y="1650" type="line"/>
			<point x="415" y="1754" type="line" smooth="yes"/>
			<point x="396" y="1764"/>
			<point x="352" y="1794"/>
		</contour>
	</outline>
	<anchor name="_top" x="448" y="1500"/>
	<anchor name="top" x="448" y="1854"/>
</glyph>
<glyph name="dieresiscomb.case" format="2">
	<advance width="896"/>
	<outline>
		<contour>
			<point x="243" y="1709" type="qcurve" smooth="yes"/>
			<point x="243" y="1732"/>
			<point x="278" y="1766"/>
			<point x="304" y="1766" type="qcurve" smooth="yes"/>
			<point x="329" y="1766"/>
			<point x="361" y="1734"/>
			<point x="361" y="1709" type="qcurve" smooth="yes"/>
			<point x="361" y="1685"/>
			<point x="328" y="1650"/>
			<point x="304" y="1650" type="qcurve" smooth="yes"/>
			<point x="276" y="1650"/>
			<point x="243" y="1683"/>
		</contour>
		<contour>
			<point x="535" y="1709" type="qcurve" smooth="yes"/>
			<point x="535" y="1732"/>
			<point x="568" y="1766"/>
			<point x="592" y="1766" type="qcurve" smooth="yes"/>
			<point x="620" y="1766"/>
			<point x="653" y="1734"/>
			<point x="653" y="1709" type="qcurve" smooth="yes"/>
			<point x="653" y="1685"/>
			<point x="618" y="1650"/>
			<point x="592" y="1650" type="qcurve" smooth="yes"/>
			<point x="567" y="1650"/>
			<point x="535" y="1683"/>
		</contour>
	</outline>
	<anchor name="_top" x="448" y="1500"/>
	<anchor name="top" x="448" y="1766"/>
</glyph>
<glyph name="dotbelowcomb.case" format="2">
	<advance width="896"/>
	<outline>
		<contour>
			<point x="390" y="-237" type="qcurve" smooth="yes"/>
			<point x="390" y="-210"/>
			<point x="420" y="-180"/>
			<point x="447" y="-180" type="qcurve" smooth="yes"/>
			<point x="475" y="-180"/>
			<point x="507" y="-212"/>
			<point x="507" y="-237" type="qcurve" smooth="yes"/>
			<point x="507" y="-265"/>
			<point x="477" y="-295"/>
			<point x="447" y="-295" type="qcurve" smooth="yes"/>
			<point x="420" y="-295"/>
			<point x="390" y="-265"/>
		</contour>
	</outline>
	<anchor name="_bottom" x="448" y="0"/>
	<anchor name="bottom" x="448" y="-295"/>
</glyph>
<glyph name="gravecomb.case" format="2">
	<advance width="896"/>
	<outline>
		<contour>
			<point x="307" y="1824" type="qcurve" smooth="yes"/>
			<point x="307" y="1839"/>
			<point x="327" y="1864"/>
			<point x="346" y="1864" type="qcurve" smooth="yes"/>
			<point x="365" y="1864"/>
			<point x="391" y="1843"/>
			<point x="410" y="1825" type="qcurve" smooth="yes"/>
			<point x="585" y="1658" type="line"/>
			<point x="579" y="1650" type="line"/>
			<point x="370" y="1764" type="line" smooth="yes"/>
			<point x="351" y="1774"/>
			<point x="307" y="1804"/>
		</contour>
	</outline>
	<anchor name="_top" x="448" y="1500"/>
	<anchor name="top" x="448" y="1864"/>
</glyph>
<glyph name="hookabovecomb.case" format="2">
	<advance width="896"/>
	<outline>
		<contour>
			<point x="376" y="1650" type="line"/>
			<point x="376" y="1755" type="line"/>
			<point x="384" y="1755" type="line"/>
			<point x="397" y="1746"/>
			<point x="446" y="1732"/>
			<point x="483" y="1732" type="qcurve" smooth="yes"/>
			<point x="530" y="1732"/>
			<point x="584" y="1785"/>
			<point x="584" y="1829" type="qcurve" smooth="yes"/>
			<point x="584" y="1863"/>
			<point x="532" y="1909"/>
			<point x="484" y="1909" type="qcurve" smooth="yes"/>
			<point x="435" y="1909"/>
			<point x="344" y="1860"/>
			<point x="324" y="1837" type="qcurve"/>
			<point x="312" y="1852" type="line"/>
			<point x="338" y="1878"/>
			<point x="442" y="1925"/>
			<point x="499" y="1925" type="qcurve" smooth="yes"/>
			<point x="568" y="1925"/>
			<point x="653" y="1874"/>
			<point x="653" y="1823" type="qcurve" smooth="yes"/>
			<point x="653" y="1769"/>
			<point x="564" y="1714"/>
			<point x="491" y="1714" type="qcurve" smooth="yes"/>
			<point x="457" y="1714"/>
			<point x="417" y="1722"/>
			<point x="396" y="1732" type="qcurve"/>
			<point x="396" y="1650" type="line"/>
		</contour>
	</outline>
	<anchor name="_top" x="448" y="1500"/>
	<anchor name="top" x="448" y="1925"/>
</glyph>
<glyph name="horncomb.case" format="2">
	<advance width="896"/>
	<outline>
		<contour>
			<point x="256" y="1500" type="line"/>
			<point x="303" y="1482"/>
			<point x="385" y="1461"/>
			<point x="448" y="1461" type="qcurve" smooth="yes"/>
			<point x="513" y="1461"/>
			<point x="596" y="1535"/>
			<point x="596" y="1596" type="qcurve" smooth="yes"/>
			<point x="596" y="1641"/>
			<point x="576" y="1706"/>
			<point x="553" y="1736" type="qcurve"/>
			<point x="559" y="1742" type="line"/>
			<point x="593" y="1710"/>
			<point x="649" y="1624"/>
			<point x="651" y="1574" type="qcurve" smooth="yes"/>
			<point x="653" y="1511"/>
			<point x="562" y="1424"/>
			<point x="467" y="1424" type="qcurve" smooth="yes"/>
			<point x="396" y="1424"/>
			<point x="302" y="1461"/>
			<point x="256" y="1487" type="qcurve"/>
		</contour>
	</outline>
	<anchor name="_topright" x="256" y="1500"/>
	<anchor name="topright" x="256" y="1742"/>
</glyph>
<glyph name="idot" format="2">
	<outline>
		<contour>
			<point x="-36" y="1230" type="qcurve" smooth="yes"/>
			<point x="-36" y="1248"/>
			<point x="-15" y="1272"/>
			<point x="0" y="1272" type="qcurve" smooth="yes"/>
			<point x="15" y="1272"/>
			<point x="37" y="1250"/>
			<point x="37" y="1230" type="qcurve" smooth="yes"/>
			<point x="37" y="1212"/>
			<point x="13" y="1187"/>
			<point x="0" y="1187" type="qcurve" smooth="yes"/>
			<point x="-17" y="1187"/>
			<point x="-36" y="1209"/>
		</contour>
	</outline>
	<anchor name="_top" x="0" y="920"/>
</glyph>
<glyph name="macroncomb.case" format="2">
	<advance width="896"/>
	<outline>
		<contour>
			<point x="197" y="1680" type="line"/>
			<point x="197" y="1715" type="line"/>
			<point x="699" y="1715" type="line"/>
			<point x="699" y="1680" type="line"/>
		</contour>
	</outline>
	<anchor name="_top" x="448" y="1500"/>
	<anchor name="top" x="448" y="1715"/>
</glyph>
<glyph name="ogonekcomb.case" format="2">
	<advance width="896"/>
	<outline>
		<contour>
			<point x="306" y="-193" type="qcurve" smooth="yes"/>
			<point x="306" y="-140"/>
			<point x="400" y="-43"/>
			<point x="487" y="-5" type="qcurve" smooth="yes"/>
			<point x="514" y="7" type="line"/>
			<point x="524" y="0" type="line"/>
			<point x="508" y="-9" type="line" smooth="yes"/>
			<point x="440" y="-48"/>
			<point x="366" y="-145"/>
			<point x="366" y="-197" type="qcurve" smooth="yes"/>
			<point x="366" y="-246"/>
			<point x="437" y="-310"/>
			<point x="492" y="-310" type="qcurve" smooth="yes"/>
			<point x="542" y="-310"/>
			<point x="642" y="-251"/>
			<point x="689" y="-192" type="qcurve"/>
			<point x="695" y="-200" type="line"/>
			<point x="650" y="-267"/>
			<point x="533" y="-336"/>
			<point x="472" y="-336" type="qcurve" smooth="yes"/>
			<point x="400" y="-336"/>
			<point x="306" y="-255"/>
		</contour>
	</outline>
	<anchor name="_ogonek" x="524" y="0"/>
	<anchor name="bottom" x="448" y="-336"/>
</glyph>
<glyph name="ringcomb.case" format="2">
	<advance width="896"/>
	<outline>
		<contour>
			<point x="301" y="1724" type="qcurve" smooth="yes"/>
			<point x="301" y="1770"/>
			<point x="373" y="1848"/>
			<point x="433" y="1848" type="qcurve" smooth="yes"/>
			<point x="493" y="1848"/>
			<point x="565" y="1770"/>
			<point x="565" y="1724" type="qcurve" smooth="yes"/>
			<point x="565" y="1678"/>
			<point x="493" y="1600"/>
			<point x="433" y="1600" type="qcurve" smooth="yes"/>
			<point x="373" y="1600"/>
			<point x="301" y="1678"/>
		</contour>
		<contour>
			<point x="339" y="1724" type="qcurve" smooth="yes"/>
			<point x="339" y="1678"/>
			<point x="388" y="1615"/>
			<point x="433" y="1615" type="qcurve" smooth="yes"/>
			<point x="480" y="1615"/>
			<point x="527" y="1675"/>
			<point x="527" y="1724" type="qcurve" smooth="yes"/>
			<point x="527" y="1770"/>
			<point x="478" y="1833"/>
			<point x="433" y="1833" type="qcurve" smooth="yes"/>
			<point x="386" y="1833"/>
			<point x="339" y="1773"/>
		</contour>
	</outline>
	<anchor name="_top" x="448" y="1500"/>
	<anchor name="top" x="448" y="1848"/>
</glyph>
